<svg xmlns="http://www.w3.org/2000/svg" viewBox="0 0 1920 1080">
  <path fill="#3b92dc" d="M0 0h1920v1080H0z"/>
  <g fill="#fff">
    <path d="M115.21 527.12l32.5 29.71-6.13 2.35-21.66-19.8L131.68 570l-6.13 2.36-14.11-36.76-.5 35.34-6.12 2.36.49-35.34zm-27.29-52.79l-6.13 2.35 2.35 6.13 6.13-2.35zm-5.2 23.09l-6.13 2.35 2.35 6.13 6.13-2.36zm-23.09-5.2l-6.13 2.35 2.36 6.13 6.14-2.35zm10.42 52.24a3.41 3.41 0 0 0 .6 4.48l5.53 4.34a3.21 3.21 0 0 0 4.4-.28l7-7.31-11.81-9.53-5.77 8.26zm35.67-51.58l-26.25 37.84L92 540.94l31.66-33.45-18-14.59zm28.87-2.09l-14.94-12a3.34 3.34 0 0 0-4.7.51l-.11.14-5.4 7.91 18.8 15.28 6.65-7a3.28 3.28 0 0 0-.3-4.84zM225.44 430c10.47 11.85 10.88 20.55 7.23 28.75-3.68 9.09-11.78 17.9-14.92 30.3-4.22 16.62 5.15 45.78 41.35 40.44-16.87-2-28.08-22.27-18.09-41.4 1.08 14.44 11.53 19.93 19.36 13.49s16-2.25 18.56 5.09c1.78 5 1.55 9.94-2.77 14.3 20.35-12.13 22.1-33.5 16.86-47.14-6.95-18.1-24-14.33-21.69-32.7-9.38 4.55-10.18 12.17-5.32 22.16 3.21 6.66-2.1 14-8.6 13-5.28-1-7.12-6-4.74-11.2 5-10.9 1.14-30.36-27.21-35l-.17-.08zM400.5 473.41q-6.87 2.64-12.56.2t-8.48-9.74L373 447c-1.49-3.91-3.56-6.46-6.18-7.67s-6-1.07-10.09.42l-3.84-10q6.11-2.64 7.77-6.61t-.57-9.77l-6.46-16.84q-2.88-7.5-.36-13t9.61-8.19l16.79-6.45 3.75 9.76-9.66 3.7c-3.11 1.2-5 2.95-5.72 5.27s-.37 5.26 1 8.86L375 412a13.71 13.71 0 0 1 .28 9.56 14.13 14.13 0 0 1-5.95 7.47l.08.2a14.66 14.66 0 0 1 9.54 1.67 13.6 13.6 0 0 1 6.06 7.19l5.93 15.46q2.1 5.44 5.19 7.29t7.77.05l9.65-3.7 3.75 9.81zM436.2 459.71l-3.77-9.81 9.65-3.7q4.68-1.8 5.74-5.24t-1-8.89l-5.94-15.46a13.58 13.58 0 0 1-.3-9.39 14.57 14.57 0 0 1 6-7.63l-.08-.2a14.25 14.25 0 0 1-9.46-1.62 13.61 13.61 0 0 1-6.14-7.24l-5.93-15.46q-2.07-5.4-5.18-7.27c-2.07-1.24-4.66-1.27-7.78-.07l-9.65 3.7-3.75-9.76 16.8-6.44q7.08-2.73 12.62-.34t8.42 9.88l6.47 16.84q2.22 5.81 6.11 7.64t10.2-.29L463 399q-6.06 2.46-7.78 6.44t.54 9.84l6.46 16.84q2.79 7.25.23 12.88t-9.45 8.26zM791.59 309.59L753 271l-9.41-24.51 6.12-2.35-2.35-6.13-55.14 21.17 2.35 6.12 6.13-2.35 9.4 24.51-2.79 54.43a6.56 6.56 0 0 0 6.18 6.92 6.4 6.4 0 0 0 2.71-.42l73.16-28.08a6.59 6.59 0 0 0 2.26-10.78zm-75.93-3.12l.6-21.32-9.41-24.51 30.64-11.76 9.41 24.51 14.71 15.44zM737 284.22l6.12-2.35 2.36 6.13-6.13 2.35zm-8.48-3.77l-6.13 2.35-2.39-6.13 6.12-2.35zm-7.06-18.39l6.13-2.35 2.35 6.13-6.13 2.35zm-7.06-18.38l-6.12 2.32-2.36-6.12 6.13-2.36zM1296.42 90.4l22.58-8.68-2.89-7.54-22.63 8.68-2.89-7.54 20.92-16.94-5.28-6.11-18.54 15.51-2.89-7.54a8.11 8.11 0 0 0-10.44-4.65l-2.89-7.54a8.11 8.11 0 0 0-9.07-4.91l4.79-10.75 13.57-5.21-2.89-7.54-16.55 6.36-9.32 20.88-4.45 1.7-20.94-9.26-16.61 6.37 2.89 7.54L1226.5 48l10.75 4.79a8 8 0 0 0-3.45 9.71l2.9 7.54a8.11 8.11 0 0 0-4.65 10.44L1235 88l-24.15.88.15 8.12 26.89-1.41 2.9 7.54-22.63 8.69 2.9 7.54 22.62-8.68 2.9 7.54-20.93 16.94 5.29 6.11 18.53-15.51 2.9 7.54a8.09 8.09 0 0 0 10.43 4.65l7.54-2.9 4.65-10.43-20.27-52.79 7.55-2.9 20.26 52.79 10.44 4.65 7.54-2.9a8.09 8.09 0 0 0 4.59-10.47l-2.89-7.55 24.15-.87-.16-8.08-26.89 1.41zm-29.56-31.91l-22.62 8.68-2.9-7.54 22.66-8.69zM1059.77 133.4a7.5 7.5 0 1 1 9.69 4.32 7.52 7.52 0 0 1-9.69-4.32zm56-21.5a7.5 7.5 0 1 0-4.31 9.69 7.53 7.53 0 0 0 4.33-9.69zm16.13 42a7.5 7.5 0 1 0-4.32 9.69 7.52 7.52 0 0 0 4.34-9.68zM1119 78.51L1063 100l5.84 15.19a14.65 14.65 0 0 1 8 3.58l16.38-6.29a15.69 15.69 0 1 1 21.06 16.75 15.5 15.5 0 0 1-15.75-2.72l-16.32 6.27a15.3 15.3 0 0 1-13.61 13.5 15.7 15.7 0 0 1-14.73-6.56 15.25 15.25 0 0 1 .92-19.15l-5.83-15.2-14 5.38a7.52 7.52 0 0 0-4.31 9.69l32.25 84a7.52 7.52 0 0 0 9.69 4.31l21.58-48.45 15.19-5.83a15.69 15.69 0 1 1 21 16.74 15.48 15.48 0 0 1-15.74-2.71l-8.19 3.14-12.88 29.05 63-24.19a7.52 7.52 0 0 0 4.31-9.69l-32.26-84a7.52 7.52 0 0 0-9.6-4.3zM603.6 294.25l-7 2.69 4 10.5a3.72 3.72 0 0 1-2.16 4.85l-14 5.38a3.72 3.72 0 0 1-4.85-2.16l-4-10.51-21 8.07 4 10.5a3.71 3.71 0 0 1-2.15 4.85l-14 5.37a3.71 3.71 0 0 1-4.85-2.15l-4-10.51-7 2.69a7.52 7.52 0 0 0-4.31 9.69l29.56 77a7.53 7.53 0 0 0 9.7 4.31l77-29.56a7.53 7.53 0 0 0 4.32-9.7l-29.57-77a7.52 7.52 0 0 0-9.69-4.31zm32.26 84l-77 29.57-24.2-63 77-29.57zm-85.59-55.52l-7 2.69-5.37-14 7-2.69zm42-16.13l-7 2.69-5.38-14 7-2.68zM568 348.08l-7 2.69-2.69-7 7-2.69zm14-5.38l-7 2.69-2.68-7 7-2.69zm14-5.37l-7 2.67-2.69-7 7-2.68zm14-5.33l-7 2.69-2.68-7 7-2.69zm-50.65 35.51l-7 2.69-2.69-7 7-2.69zm14-5.37l-7 2.68-2.68-7 7-2.69zm14-5.38l-7 2.69-2.69-7 7-2.69zm14-5.38l-7 2.69-2.68-7 7-2.69zm14-5.37l-7 2.69-2.69-7 7-2.68zm-50.64 35.51l-7 2.69-2.69-7 7-2.68zm14-5.38l-7 2.69-2.69-7 7-2.69zm14-5.37l-7 2.68-2.69-7 7-2.69zm14-5.38l-7 2.69-2.69-7 7-2.68zm14-5.38l-7 2.69-2.69-7 7-2.69zm-50.65 35.51l-7 2.69-2.69-7 7-2.69zm14-5.37l-7 2.68-2.69-7 7-2.69zm14-5.38l-7 2.69-2.69-7 7-2.69zm14-5.38l-7 2.69-2.69-7 7-2.69zM920.27 164.66L911.2 185l47.49 21.14-21.14 47.48 20.35 9.06 25.3-65.95zm-49 18.81l-25.3 66 62.93 32.08 9.06-20.35-47.5-21.2 21.14-47.49zM1416.57-32.89l-49 18.82a6.58 6.58 0 0 0-3.77 8.48l32.93 85.78a6.57 6.57 0 0 0 8.48 3.77l49-18.81a6.59 6.59 0 0 0 3.77-8.48l-32.93-85.79a6.58 6.58 0 0 0-8.48-3.77zm11.48 103.15a8.53 8.53 0 1 1 4.91-11 8.5 8.5 0 0 1-4.91 11zm16.75-29.62l-49 18.81-23.54-61.27 49-18.82zM1605.33-97.61l-105.58 40.52a8.11 8.11 0 0 0-4.65 10.44l26.06 67.87a8.09 8.09 0 0 0 10.43 4.65l40.27-15.46c-.12 5.32-2.46 13-11.85 21.85l60.33-23.15c-12.93-.32-19.79-4.44-23.44-8.31l40.27-15.46a8.11 8.11 0 0 0 4.65-10.44L1615.76-93a8.09 8.09 0 0 0-10.43-4.61zm26.05 67.87L1525.8 10.78l-23.16-60.33 105.58-40.52zM118.64 772.65l22.62-8.65-2.89-7.54-22.62 8.69-2.9-7.55 20.92-16.94-5.28-6.1L110 750l-2.9-7.54a8.09 8.09 0 0 0-10.43-4.64l-2.9-7.55a8.11 8.11 0 0 0-9.07-4.91l4.79-10.75 13.51-5.19-2.89-7.54-16.59 6.37-9.3 20.87-4.44 1.71-20.95-9.26-16.59 6.36 2.89 7.55 13.58-5.22 10.75 4.79a8.05 8.05 0 0 0-3.46 9.72l2.9 7.54a8.11 8.11 0 0 0-4.65 10.44l2.9 7.54-24.15.87.16 8.08 26.88-1.41 2.9 7.54-22.63 8.68 2.9 7.55 22.62-8.69 2.9 7.54-20.91 16.95 5.29 6.1L71.64 808l2.9 7.54A8.1 8.1 0 0 0 85 820.18l7.54-2.89 4.65-10.44-20.29-52.79 7.54-2.89L104.7 804l10.44 4.65 7.54-2.89a8.11 8.11 0 0 0 4.65-10.44l-2.9-7.54 24.15-.88-.16-8.07-26.88 1.41zm-29.56-31.92l-22.62 8.68-2.89-7.54 22.62-8.68zM238.79 649.35l-49 18.82a6.59 6.59 0 0 0-3.78 8.48l32.93 85.78a6.59 6.59 0 0 0 8.48 3.78l49-18.82a6.57 6.57 0 0 0 3.77-8.48l-32.93-85.78a6.59 6.59 0 0 0-8.47-3.78zm11.48 103.16a8.53 8.53 0 1 1 4.91-11 8.52 8.52 0 0 1-4.91 11zM267 722.88l-49 18.82-23.52-61.28 49-18.81zM427.55 584.63L322 625.16a8.1 8.1 0 0 0-4.65 10.43l26.06 67.88a8.1 8.1 0 0 0 10.43 4.64l40.27-15.46c-.12 5.33-2.46 13-11.85 21.86l60.33-23.16c-12.93-.32-19.79-4.43-23.44-8.31l40.27-15.46a8.1 8.1 0 0 0 4.58-10.43l-26-67.87a8.1 8.1 0 0 0-10.45-4.65zm26.05 67.87L348 693l-23.14-60.3 105.58-40.53zM605.4 511.44l-63 24.19a7.53 7.53 0 0 0-4.32 9.69l5.38 14-28 10.76a7.53 7.53 0 0 0-4.32 9.69l16.13 42a7.53 7.53 0 0 0 9.69 4.32l7-2.69 8.06 21 12.94-29.08 28-10.75a7.52 7.52 0 0 0 4.32-9.69l-5.38-14 7-2.69 29.1 12.96-8.07-21 7-2.68a7.52 7.52 0 0 0 4.31-9.69l-16.13-42a7.52 7.52 0 0 0-9.71-4.34zm-15.13 86.15l-31.51 12.1-6.48 14.53-4-10.5-14 5.37-16.13-42 28-10.75 8.06 21a7.52 7.52 0 0 0 9.69 4.32l21-8.07zm34-37.14l-14 5.38 4 10.5-14.53-6.47-38.52 14.79-16.12-42 63-24.19zM759.16 481.74a15 15 0 1 0-16.38 20.11l.8 2.1a16.26 16.26 0 0 1-8.67 19.47c-5.76 2.38-9.93 5.1-12.79 8.53l-12.8-33.33a15 15 0 1 0-13.93 5.38L713 549.91a15 15 0 1 0 25.63 4 14.88 14.88 0 0 0-7.37-8.1c.47-.66 2.26-4.16 2.87-4.88a17.52 17.52 0 0 1 6.13-3.72 30.08 30.08 0 0 0 15.89-16.14c3.46-7.76 3.08-17.09.64-24.51h-.14a15.14 15.14 0 0 0 2.51-14.82zm-64.62-.91a9 9 0 1 1-5.18 11.63 9.09 9.09 0 0 1 5.18-11.63zm33.36 86.91a9 9 0 1 1 5.18-11.63 9.09 9.09 0 0 1-5.18 11.63zm20.51-72.15a9 9 0 1 1 5.18-11.59 9.09 9.09 0 0 1-5.18 11.59zM854 418.83c-20.28 7.78-30.88 29.43-23.82 47.81 10.63 27.69 61.46 50.22 61.46 50.22s22.7-50.75 12.06-78.45C896.62 420 874.26 411 854 418.83zM888.2 508c-16.17-8.06-45-25.68-51.92-43.69-5.84-15.2 3.2-32.87 20.05-39.34a34.28 34.28 0 0 1 25 0c7.66 3.11 13.46 8.69 16.21 15.86 6.92 17.95-2.72 50.34-9.34 67.17zm-9-60.16a13.13 13.13 0 1 1-17-7.55 13.08 13.08 0 0 1 16.97 7.53zM1038.58 350.07a27.09 27.09 0 0 0-16.19 16.44c-2.56 6.92-3.8 10.87-3.71 11.65-.45-.64-3.93-2.78-10.55-6.17s-13.85-4.91-23-1.39c-14.25 6.35-21.77 22-16.47 37a57.18 57.18 0 0 0 15.1 21.5c9.11 8.27 30.92 18.2 65.74 29.27 18.38-31.49 28.25-53.48 29.36-65.77a59 59 0 0 0-3.25-26.05c-6.23-14.9-21.96-21.37-37.03-16.48zM1181.69 292.75a53.84 53.84 0 0 0 21.71 104c2.68-.53 3-2.4 2.53-3.71s-2-5.13-3.65-9.34c-11.74 7.17-17.08 3-19.17.58-1.12-1.23-5.28-4.75-7.87-5.12-2.13-.27-5.53-1.63-1.35-3.31 3.94-1.58 8.19 1 9.71 2.19 7.44 5.86 13.84 1 16.23-1.47a11.34 11.34 0 0 1 .62-8c-11.66 3-25 3.19-32.39-16a20.92 20.92 0 0 1 0-15.49c-1-1.06-4.73-5.54-4.61-13.51 0 0 3.7-2.93 15.79-.15a50.85 50.85 0 0 1 25.13-9.65c7.11-10.22 11.85-10.45 11.85-10.45 5.41 5.84 5.63 11.67 5.61 13.12a20.81 20.81 0 0 1 10.31 11.56c7.4 19.29-2.71 28.07-13.41 33.62 2.43.87 5.16 3.28 7 8 2.59 6.72 4.6 12.15 5.25 13.85.5 1.32 2 2.53 4.37 1.06a53.86 53.86 0 0 0-53.62-91.79zM1363.82 278l32.5 29.7-6.13 2.36-21.66-19.81 11.76 30.64-6.13 2.35-14.11-36.76-.5 35.34-6.12 2.35.49-35.34zm-27.29-52.8l-6.13 2.35 2.35 6.13 6.13-2.35zm-5.2 23.09l-6.13 2.35 2.35 6.13 6.13-2.35zm-23.09-5.2l-6.12 2.35 2.35 6.13 6.12-2.35zm10.43 52.24a3.4 3.4 0 0 0 .59 4.48l5.53 4.35a3.23 3.23 0 0 0 4.4-.28l7-7.32-11.85-9.56-5.76 8.25zm35.66-51.58l-26.25 37.84 12.57 10.22 31.66-33.45-18-14.59zm28.87-2.09l-14.94-12a3.34 3.34 0 0 0-4.7.51 1.71 1.71 0 0 1-.11.14l-5.4 7.91 18.8 15.28 6.65-7.05a3.27 3.27 0 0 0-.3-4.84zM1474.05 180.86c10.47 11.85 10.89 20.54 7.23 28.74-3.67 9.09-11.77 17.91-14.91 30.3-4.23 16.62 5.14 45.79 41.34 40.45-16.86-2-28.08-22.28-18.09-41.4 1.08 14.43 11.53 19.93 19.37 13.48s16-2.25 18.55 5.09c1.78 5 1.55 9.94-2.77 14.3 20.35-12.13 22.1-33.49 16.86-47.13-7-18.11-24-14.34-21.69-32.71-9.37 4.55-10.18 12.17-5.32 22.16 3.21 6.66-2.1 14-8.6 13-5.28-1-7.12-6-4.74-11.2 5-10.9 1.15-30.35-27.2-35.05l-.18-.08zM1649.12 224.23q-6.88 2.64-12.57.2t-8.48-9.74l-6.46-16.84q-2.25-5.85-6.19-7.67t-10.09.42l-3.84-10q6.1-2.64 7.77-6.61t-.57-9.77l-6.46-16.84q-2.88-7.5-.36-13t9.61-8.19l16.8-6.45 3.74 9.76-9.65 3.7c-3.12 1.2-5 2.95-5.73 5.27s-.37 5.26 1 8.86l5.94 15.46a13.63 13.63 0 0 1 .28 9.55 14.08 14.08 0 0 1-5.95 7.47l.08.2a14.72 14.72 0 0 1 9.54 1.67 13.6 13.6 0 0 1 6.06 7.19l5.94 15.46q2.09 5.44 5.18 7.29t7.77.05l9.65-3.7 3.77 9.81zM1684.81 210.53l-3.77-9.81 9.66-3.7c3.11-1.2 5-2.94 5.73-5.24s.37-5.26-1-8.89l-5.93-15.45a13.55 13.55 0 0 1-.31-9.4 14.6 14.6 0 0 1 6-7.63l-.08-.2a14.19 14.19 0 0 1-9.46-1.62 13.62 13.62 0 0 1-6.14-7.24l-5.93-15.46c-1.38-3.59-3.11-6-5.18-7.26s-4.66-1.28-7.78-.08l-9.65 3.7-3.75-9.75 16.8-6.45q7.08-2.72 12.62-.34t8.42 9.88l6.47 16.84q2.22 5.81 6.11 7.64t10.2-.29l3.84 10q-6.06 2.44-7.78 6.43t.54 9.84l6.46 16.85q2.79 7.23.23 12.87t-9.48 8.3zM1852.21 45.07l-7 2.69 4 10.51a3.71 3.71 0 0 1-2.16 4.84l-14 5.38a3.72 3.72 0 0 1-4.85-2.16l-4-10.5-21 8.06 4 10.5a3.71 3.71 0 0 1-2.15 4.85l-14 5.38a3.71 3.71 0 0 1-4.84-2.16l-4-10.51-7 2.69a7.52 7.52 0 0 0-4.31 9.69l29.57 77a7.53 7.53 0 0 0 9.69 4.32l77-29.57a7.52 7.52 0 0 0 4.32-9.69l-29.57-77a7.53 7.53 0 0 0-9.7-4.32zm32.26 84l-77 29.57-24.19-63 77-29.57zm-85.59-55.52l-7 2.69-5.37-14 7-2.68zm42-16.13l-7 2.69-5.38-14 7-2.69zm-24.25 41.48l-7 2.69-2.69-7 7-2.69zm14-5.37l-7 2.68-2.68-7 7-2.69zm14-5.38l-7 2.69-2.69-7 7-2.69zm14-5.38l-7 2.69-2.68-7 7-2.69zM1808 118.28l-7 2.69-2.69-7 7-2.69zm14-5.37l-7 2.69-2.69-7 7-2.68zm14-5.38l-7 2.69-2.69-7 7-2.69zm14-5.37l-7 2.68-2.69-7 7-2.69zm14-5.38l-7 2.69-2.69-7 7-2.68zm-50.64 35.51l-7 2.69-2.69-7 7-2.68zm14-5.38l-7 2.69-2.69-7 7-2.69zm14-5.37l-7 2.69-2.69-7 7-2.69zm14-5.38l-7 2.69-2.69-7 7-2.69zm14-5.38l-7 2.69-2.69-7 7-2.69zm-50.64 35.51l-7 2.69-2.69-7 7-2.69zm14-5.37l-7 2.69-2.69-7 7-2.68zm14-5.38l-7 2.69-2.68-7 7-2.69zm14-5.37l-7 2.68-2.69-7 7-2.69zM-.68 977.09c10.47 11.85 10.88 20.54 7.23 28.74-3.68 9.09-11.78 17.91-14.92 30.3-4.22 16.62 5.14 45.78 41.34 40.44-16.86-2-28.07-22.27-18.08-41.4 1.08 14.44 11.52 19.93 19.36 13.49s16-2.25 18.56 5.09c1.78 5 1.55 9.94-2.78 14.3 20.36-12.13 22.1-33.49 16.87-47.14-7-18.1-24-14.33-21.7-32.7-9.37 4.55-10.17 12.17-5.31 22.16 3.21 6.66-2.1 14-8.61 13-5.27-1-7.12-6-4.73-11.2 4.95-10.9 1.14-30.36-27.21-35.05l-.17-.08zM174.38 1020.46q-6.88 2.64-12.56.2t-8.48-9.74l-6.47-16.84q-2.25-5.85-6.18-7.67t-10.09.42l-3.85-10q6.12-2.64 7.78-6.61t-.57-9.77l-6.47-16.84q-2.88-7.5-.35-13t9.61-8.19l16.79-6.42 3.75 9.76-9.66 3.7c-3.11 1.2-5 2.95-5.73 5.27s-.36 5.26 1 8.86l5.95 15.41a13.57 13.57 0 0 1 .28 9.55 14.06 14.06 0 0 1-5.94 7.47l.08.2a14.66 14.66 0 0 1 9.54 1.67 13.6 13.6 0 0 1 6.06 7.19l5.93 15.46c1.4 3.63 3.12 6.06 5.19 7.29s4.65 1.25 7.77 0l9.65-3.7 3.77 9.81zM210.07 1006.76l-3.76-9.76 9.65-3.7q4.68-1.8 5.74-5.24t-1-8.89l-5.94-15.46a13.64 13.64 0 0 1-.31-9.39 14.67 14.67 0 0 1 6-7.63l-.07-.2a14.25 14.25 0 0 1-9.46-1.62 13.61 13.61 0 0 1-6.14-7.24l-5.94-15.46q-2.07-5.4-5.17-7.27c-2.07-1.24-4.66-1.27-7.78-.07l-9.65 3.7-3.75-9.75 16.79-6.45q7.1-2.71 12.63-.34t8.42 9.88l6.46 16.84q2.23 5.8 6.12 7.64t10.2-.29l3.84 10q-6.08 2.44-7.78 6.43t.54 9.84l6.46 16.84q2.77 7.25.23 12.88t-9.48 8.29zM565.47 856.64l-38.57-38.55-9.4-24.51 6.12-2.35-2.35-6.13-55.14 21.17 2.35 6.13 6.12-2.4 9.4 24.55-2.78 54.45a6.55 6.55 0 0 0 6.18 6.92 6.43 6.43 0 0 0 2.71-.42l73.16-28.08a6.59 6.59 0 0 0 2.26-10.78zm-75.93-3.12l.6-21.32-9.41-24.51 30.64-11.76 9.41 24.51 14.71 15.44zm21.33-22.25l6.13-2.35 2.35 6.13-6.12 2.35zm-8.48-3.77l-6.12 2.35-2.35-6.13 6.12-2.35zm-7.05-18.39l6.13-2.35 2.35 6.13-6.13 2.35zm-7.06-18.38l-6.13 2.35-2.35-6.08 6.13-2.35zM1070.3 637.45l22.62-8.68-2.89-7.54-22.63 8.68-2.89-7.54 20.92-16.94-5.28-6.11-18.54 15.51-2.89-7.54a8.11 8.11 0 0 0-10.44-4.65l-2.89-7.54a8.12 8.12 0 0 0-9.07-4.91l4.79-10.75 13.57-5.21-2.9-7.54-16.59 6.37-9.29 20.87-4.45 1.71-21-9.27-16.59 6.37 2.9 7.54 13.57-5.21 10.75 4.79a8 8 0 0 0-3.45 9.71l2.9 7.55a8.09 8.09 0 0 0-4.65 10.43l2.89 7.54-24.15.88.16 8.07 26.89-1.41 2.89 7.55-22.56 8.68 2.9 7.54 22.62-8.68 2.89 7.54-20.93 16.94 5.28 6.11 18.54-15.51 2.89 7.54a8.11 8.11 0 0 0 10.44 4.65l7.54-2.9 4.65-10.43-20.27-52.79 7.54-2.9 20.27 52.79 10.43 4.65 7.55-2.9a8.1 8.1 0 0 0 4.64-10.43l-2.89-7.55 24.15-.87-.16-8.08-26.89 1.42zm-29.56-31.91l-22.62 8.68-2.9-7.54 22.63-8.69zM833.65 680.45a7.5 7.5 0 1 1 9.69 4.32 7.52 7.52 0 0 1-9.69-4.32zm56-21.5a7.5 7.5 0 1 0-4.32 9.69 7.53 7.53 0 0 0 4.34-9.64zm16.13 42a7.5 7.5 0 1 0-4.32 9.69 7.52 7.52 0 0 0 4.34-9.64zm-12.88-75.4l-56 21.51 5.83 15.19a14.68 14.68 0 0 1 8 3.58l16.38-6.29a15.69 15.69 0 1 1 21.05 16.75 15.46 15.46 0 0 1-15.74-2.72l-16.32 6.27a15.3 15.3 0 0 1-13.61 13.5 15.7 15.7 0 0 1-14.73-6.56 15.25 15.25 0 0 1 .92-19.15l-5.84-15.2-14 5.38a7.52 7.52 0 0 0-4.31 9.69l32.25 84a7.52 7.52 0 0 0 9.69 4.31l21.63-48.41 15.19-5.83a15.69 15.69 0 1 1 21.05 16.74 15.48 15.48 0 0 1-15.74-2.71l-8.2 3.14-12.87 29 63-24.19a7.52 7.52 0 0 0 4.32-9.69l-32.26-84a7.52 7.52 0 0 0-9.67-4.3zM377.48 841.3l-7 2.69 4 10.5a3.72 3.72 0 0 1-2.16 4.85l-14 5.38a3.71 3.71 0 0 1-4.84-2.16l-4-10.51-21 8.07 4 10.5a3.72 3.72 0 0 1-2.16 4.85l-14 5.37a3.71 3.71 0 0 1-4.85-2.15l-4-10.51-7 2.69a7.53 7.53 0 0 0-4.32 9.69l29.57 77a7.52 7.52 0 0 0 9.69 4.31l77-29.56a7.53 7.53 0 0 0 4.32-9.69l-29.57-77a7.53 7.53 0 0 0-9.68-4.32zm32.25 84l-77 29.57-24.2-63 77-29.57zm-85.59-55.52l-7 2.69-5.37-14 7-2.69zm42-16.13l-7 2.69-5.38-14 7-2.68zm-24.24 41.48l-7 2.69-2.69-7 7-2.69zm14-5.37l-7 2.68-2.69-7 7-2.69zm14-5.38l-7 2.69-2.69-7 7-2.68zm14-5.38l-7 2.69-2.69-7 7-2.69zm-50.64 35.51l-7 2.69-2.69-7 7-2.69zm14-5.37l-7 2.69-2.69-7 7-2.69zm14-5.38l-7 2.69-2.69-7 7-2.69zm14-5.38l-7 2.69-2.69-7 7-2.69zm14-5.37l-7 2.69-2.69-7 7-2.68zm-50.64 35.51l-7 2.69-2.68-7 7-2.68zm14-5.38l-7 2.69-2.69-7 7-2.69zm14-5.37l-7 2.68-2.68-7 7-2.69zm14-5.38l-7 2.69-2.69-7 7-2.69zm14-5.38l-7 2.69-2.68-7 7-2.69zM344 942.52l-7 2.69-2.69-7 7-2.69zm14-5.37l-7 2.69-2.68-7 7-2.69zm14-5.38l-7 2.69-2.69-7 7-2.69zm14-5.38l-7 2.69-2.69-7 7-2.69zM694.14 711.71l-9.06 20.35 47.49 21.14-21.14 47.48 20.35 9.06 25.3-66zm-49 18.81l-25.3 66 62.93 32.08 9.06-20.35-47.49-21.14 21.15-47.48zM1190.45 514.16l-49 18.82a6.57 6.57 0 0 0-3.77 8.48l32.93 85.78a6.57 6.57 0 0 0 8.48 3.77l49-18.81a6.59 6.59 0 0 0 3.78-8.48l-32.93-85.78a6.59 6.59 0 0 0-8.49-3.78zm11.48 103.16a8.54 8.54 0 1 1 4.91-11 8.52 8.52 0 0 1-4.91 11zm16.75-29.63l-49 18.81-23.52-61.27 49-18.82zM1379.2 449.44L1273.63 490a8.11 8.11 0 0 0-4.63 10.4l26 67.87a8.11 8.11 0 0 0 10.44 4.65l40.27-15.46c-.12 5.32-2.46 13-11.86 21.86l60.33-23.16c-12.92-.32-19.78-4.44-23.43-8.31l40.27-15.46a8.09 8.09 0 0 0 4.64-10.44l-26-67.87a8.09 8.09 0 0 0-10.46-4.64zm26.06 67.87l-105.58 40.52-23.16-60.32L1382.1 457zM1557.06 376.24l-63 24.19a7.53 7.53 0 0 0-4.31 9.7l5.38 14-28 10.75a7.52 7.52 0 0 0-4.32 9.69l16.13 42a7.52 7.52 0 0 0 9.69 4.31l7-2.68 8.07 21 12.94-29.07 28-10.75a7.53 7.53 0 0 0 4.32-9.69l-5.38-14 7-2.69 29.04 13-8.06-21 7-2.69a7.53 7.53 0 0 0 4.32-9.69l-16.13-42a7.52 7.52 0 0 0-9.69-4.38zm-15.14 86.16l-31.51 12.09-6.47 14.51-4-10.51-14 5.38-16.13-42 28-10.76 8.07 21a7.52 7.52 0 0 0 9.69 4.31l21-8.06zm33.95-37.14l-14 5.38 4 10.5-14.53-6.47-38.52 14.78-16.13-42 63-24.2zM1710.82 346.54a15 15 0 1 0-16.39 20.11l.81 2.1a16.27 16.27 0 0 1-8.67 19.48c-5.76 2.37-9.94 5.1-12.8 8.53L1661 363.43a15 15 0 1 0-13.94 5.35l17.64 45.93a14.91 14.91 0 1 0 18.26-4.12c.47-.66 2.26-4.16 2.87-4.87a17.23 17.23 0 0 1 6.12-3.72 30.08 30.08 0 0 0 15.9-16.15c3.45-7.75 3.08-17.09.64-24.5h-.14a15.16 15.16 0 0 0 2.47-14.81zm-64.62-.9a9 9 0 1 1-5.18 11.63 9.07 9.07 0 0 1 5.18-11.63zm33.35 86.9a9 9 0 1 1 5.18-11.63 9.05 9.05 0 0 1-5.18 11.63zm20.52-72.15a9 9 0 1 1 5.17-11.63 9.06 9.06 0 0 1-5.17 11.63zM1805.63 283.63c-20.28 7.79-30.88 29.43-23.83 47.82 10.64 27.69 61.46 50.22 61.46 50.22s22.7-50.75 12.07-78.45c-7.05-18.38-29.42-27.37-49.7-19.59zm34.22 89.15c-16.17-8.06-45-25.67-51.92-43.69-5.83-15.19 3.2-32.86 20-39.33a34.25 34.25 0 0 1 25 0c7.66 3.11 13.45 8.68 16.2 15.85 6.99 17.98-2.65 50.39-9.28 67.17zm-9-60.15a13.13 13.13 0 1 1-17-7.55 13.08 13.08 0 0 1 16.97 7.55zM462.56 1026.52l-63 24.19a7.52 7.52 0 0 0-4.31 9.69l5.37 14-28 10.76a7.52 7.52 0 0 0-4.31 9.69l16.13 42a7.53 7.53 0 0 0 9.69 4.32l7-2.69 8.06 21 12.95-29.08 28-10.75a7.52 7.52 0 0 0 4.31-9.69l-5.37-14 7-2.69 29.07 12.94-8.06-21 7-2.68a7.52 7.52 0 0 0 4.31-9.69l-16.12-42a7.53 7.53 0 0 0-9.72-4.32zm-15.13 86.15l-31.51 12.1-6.47 14.53-4-10.5-14 5.37-16.13-42 28-10.75 8.07 21a7.51 7.51 0 0 0 9.69 4.32l21-8.07zm33.95-37.14l-14 5.38 4 10.5-14.54-6.47-38.51 14.79-16.13-42 63-24.19zM616.33 996.82a15 15 0 1 0-16.39 20.11l.81 2.1a16.26 16.26 0 0 1-8.67 19.47c-5.76 2.38-9.94 5.1-12.8 8.53l-12.8-33.33a15 15 0 1 0-13.93 5.35l17.63 45.95a14.95 14.95 0 0 0 17 23.36 15 15 0 0 0 1.26-27.48c.47-.66 2.26-4.16 2.87-4.88a17.38 17.38 0 0 1 6.12-3.72 30.1 30.1 0 0 0 15.9-16.14c3.45-7.76 3.08-17.09.63-24.51h-.14a15.12 15.12 0 0 0 2.51-14.81zm-64.63-.91a9 9 0 1 1-5.17 11.63 9.09 9.09 0 0 1 5.17-11.63zm33.36 86.91a9 9 0 1 1 5.18-11.63 9.09 9.09 0 0 1-5.18 11.63zm20.51-72.15a9 9 0 1 1 5.18-11.67 9.09 9.09 0 0 1-5.18 11.67zM711.14 933.91c-20.28 7.78-30.88 29.43-23.83 47.81 10.63 27.69 61.46 50.22 61.46 50.22s22.7-50.75 12.07-78.45c-7.06-18.38-29.42-27.37-49.7-19.58zm34.22 89.15c-16.17-8.06-45-25.68-51.92-43.69-5.83-15.2 3.2-32.87 20-39.34a34.28 34.28 0 0 1 25 0c7.66 3.11 13.46 8.69 16.21 15.86 6.98 17.97-2.65 50.36-9.29 67.17zm-9-60.16a13.13 13.13 0 1 1-17-7.55 13.08 13.08 0 0 1 16.97 7.55zM895.74 865.15a27.09 27.09 0 0 0-16.19 16.44c-2.56 6.92-3.8 10.87-3.71 11.65-.45-.64-3.93-2.78-10.55-6.17s-13.84-4.91-23-1.39c-14.26 6.35-21.77 22-16.48 37a57.12 57.12 0 0 0 15.11 21.5c9.1 8.27 30.91 18.2 65.74 29.27C925 942 934.88 920 936 907.68a59 59 0 0 0-3.25-26c-6.21-14.95-21.94-21.42-37.01-16.53zM1038.86 807.83a53.83 53.83 0 0 0 21.7 104c2.68-.53 3-2.4 2.54-3.71s-2-5.13-3.66-9.34c-11.73 7.17-17.07 3-19.16.58-1.12-1.23-5.29-4.75-7.88-5.12-2.12-.27-5.53-1.63-1.34-3.31 3.93-1.58 8.18 1 9.7 2.19 7.44 5.86 13.85 1 16.23-1.47a11.33 11.33 0 0 1 .63-8c-11.67 3-25 3.19-32.4-16a21 21 0 0 1 0-15.49c-1-1.06-4.72-5.54-4.61-13.51 0 0 3.7-2.93 15.8-.15a50.76 50.76 0 0 1 25.13-9.65c7.1-10.22 11.84-10.45 11.84-10.45 5.42 5.84 5.64 11.67 5.62 13.12a20.83 20.83 0 0 1 10.33 11.53c7.4 19.29-2.7 28.07-13.4 33.62 2.42.87 5.15 3.28 7 8 2.58 6.72 4.59 12.15 5.24 13.85.51 1.32 2.05 2.53 4.37 1.06a53.86 53.86 0 0 0-53.61-91.79zM1221 793l32.49 29.7-6.13 2.36-21.66-19.81 11.76 30.64-6.13 2.35-14.11-36.76-.49 35.34-6.13 2.35.49-35.34zm-27.3-52.8l-6.13 2.35 2.36 6.13 6.12-2.35zm-5.2 23.09l-6.12 2.35 2.35 6.13 6.12-2.35zm-23.08-5.2l-6.13 2.35 2.35 6.13 6.13-2.35zm10.42 52.24a3.41 3.41 0 0 0 .59 4.48l5.54 4.35a3.22 3.22 0 0 0 4.39-.28l7-7.32-11.81-9.52-5.76 8.25zm35.67-51.58l-26.25 37.84 12.57 10.22 31.66-33.45-18-14.59zm28.86-2.09l-14.93-12a3.35 3.35 0 0 0-4.71.51l-.1.14-5.4 7.91 18.8 15.28 6.64-7a3.27 3.27 0 0 0-.31-4.81zM1331.21 695.94c10.48 11.85 10.89 20.54 7.24 28.74-3.68 9.09-11.78 17.91-14.92 30.3-4.23 16.62 5.14 45.78 41.34 40.45-16.86-2-28.08-22.28-18.08-41.4 1.07 14.43 11.52 19.93 19.36 13.48s16-2.25 18.56 5.09c1.78 5 1.54 9.94-2.78 14.3 20.36-12.13 22.1-33.49 16.87-47.13-7-18.11-24-14.34-21.7-32.71-9.37 4.55-10.17 12.17-5.32 22.16 3.22 6.66-2.1 14-8.6 13-5.27-1-7.12-6-4.74-11.2 5-10.9 1.15-30.36-27.2-35l-.18-.08zM1506.28 739.31q-6.88 2.64-12.56.2t-8.48-9.74l-6.47-16.84q-2.25-5.85-6.19-7.67t-10.09.42l-3.84-10q6.12-2.64 7.78-6.61t-.57-9.77l-6.47-16.84q-2.88-7.5-.35-13t9.61-8.19l16.79-6.45 3.74 9.76-9.65 3.7c-3.12 1.2-5 3-5.73 5.27s-.36 5.26 1 8.86l5.93 15.46a13.63 13.63 0 0 1 .28 9.55 14.06 14.06 0 0 1-5.94 7.47l.08.2a14.72 14.72 0 0 1 9.54 1.67 13.69 13.69 0 0 1 6.06 7.19l5.93 15.46q2.08 5.45 5.18 7.29t7.77 0l9.66-3.7 3.76 9.81zM1542 725.61l-3.76-9.81 9.65-3.7c3.12-1.2 5-2.94 5.74-5.24s.37-5.26-1-8.89l-5.93-15.45a13.61 13.61 0 0 1-.31-9.4 14.7 14.7 0 0 1 6-7.63l-.08-.2a14.16 14.16 0 0 1-9.45-1.62 13.63 13.63 0 0 1-6.15-7.24l-6.02-15.43c-1.38-3.59-3.1-6-5.17-7.26s-4.67-1.28-7.78-.08l-9.66 3.7-3.74-9.75 16.79-6.45q7.08-2.71 12.63-.34t8.41 9.88l6.47 16.84q2.23 5.81 6.11 7.64t10.2-.29l3.85 10q-6.08 2.45-7.78 6.43t.53 9.84L1568 698q2.77 7.23.23 12.87t-9.49 8.3zM1897.36 575.49l-38.56-38.55-9.41-24.51 6.13-2.35-2.35-6.13-55.17 21.17 2.35 6.13 6.13-2.36 9.41 24.51-2.8 54.44a6.55 6.55 0 0 0 8.9 6.49l73.15-28.08a6.59 6.59 0 0 0 2.26-10.78zm-75.93-3.12l.61-21.32-9.41-24.51 30.63-11.76 9.41 24.51 14.72 15.44zm21.34-22.25l6.13-2.35 2.35 6.13-6.13 2.35zm-8.48-3.77l-6.13 2.35-2.35-6.13 6.13-2.35zm-7-18.39l6.12-2.35 2.35 6.13-6.12 2.35zm-7.06-18.38l-6.13 2.36-2.35-6.13 6.13-2.35zM1709.37 560.15l-7 2.69 4 10.51a3.7 3.7 0 0 1-2.15 4.84l-14 5.38a3.71 3.71 0 0 1-4.84-2.16l-4-10.5-21 8.06 4 10.5a3.72 3.72 0 0 1-2.16 4.85l-14 5.38a3.72 3.72 0 0 1-4.85-2.16l-4-10.51-7 2.69a7.52 7.52 0 0 0-4.32 9.69l29.57 77a7.53 7.53 0 0 0 9.69 4.32l77-29.57a7.52 7.52 0 0 0 4.31-9.69l-29.57-77a7.52 7.52 0 0 0-9.68-4.32zm32.26 84l-77 29.57-24.19-63 77-29.57zM1656 588.66l-7 2.69-5.38-14 7-2.68zm42-16.13l-7 2.69-5.37-14 7-2.68zM1673.8 614l-7 2.69-2.68-7 7-2.69zm14-5.37l-7 2.68-2.69-7 7-2.69zm14-5.38l-7 2.69-2.68-7 7-2.69zm14-5.38l-7 2.69-2.69-7 7-2.69zm-50.64 35.51l-7 2.69-2.68-7 7-2.69zm14-5.37l-7 2.69-2.69-7 7-2.68zm14-5.38l-7 2.69-2.68-7 7-2.69zm14-5.37l-7 2.68-2.69-7 7-2.69zm14-5.38l-7 2.69-2.68-7 7-2.68zm-50.65 35.51l-7 2.69-2.69-7 7-2.68zm14-5.38l-7 2.69-2.69-7 7-2.69zm14-5.37l-7 2.68-2.69-7 7-2.69zm14-5.38l-7 2.69-2.69-7 7-2.69zm14-5.38l-7 2.69-2.69-7 7-2.69zm-50.64 35.51l-7 2.69-2.69-7 7-2.69zm14-5.37l-7 2.69-2.69-7 7-2.68zm14-5.38l-7 2.69-2.69-7 7-2.69zm14-5.37l-7 2.68-2.69-7 7-2.69zM97 21.14L-8.56 61.66A8.1 8.1 0 0 0-13.2 72.1L12.85 140a8.11 8.11 0 0 0 10.44 4.65l40.27-15.46c-.12 5.32-2.47 13-11.86 21.85l60.3-23.18c-12.93-.32-19.79-4.44-23.44-8.31l40.27-15.46a8.11 8.11 0 0 0 4.65-10.44l-26-67.87A8.1 8.1 0 0 0 97 21.14zM123.07 89L17.5 129.53-5.66 69.2 99.91 28.68zM274.87-52.06l-63 24.19a7.52 7.52 0 0 0-4.31 9.69l5.37 14-28 10.75a7.52 7.52 0 0 0-4.31 9.69l16.13 42a7.51 7.51 0 0 0 9.69 4.31l7-2.69 8.06 21 12.95-29.07 28-10.75a7.52 7.52 0 0 0 4.31-9.69l-5.38-14 7-2.69 29.07 13-8.06-21 7-2.69a7.52 7.52 0 0 0 4.31-9.69l-16.13-42a7.51 7.51 0 0 0-9.7-4.36zM259.74 34.1l-31.51 12.09-6.47 14.54-4-10.51-14 5.38-16.13-42 28-10.75 8.06 21a7.52 7.52 0 0 0 9.69 4.31l21-8.06zM293.69-3l-14 5.38 4 10.5-14.51-6.51-38.51 14.78-16.13-42 63-24.2zM294.11 270.44l-38.56-38.56-9.41-24.51 6.12-2.35-2.35-6.13-55.14 21.17 2.35 6.13 6.13-2.36 9.4 24.51-2.79 54.44a6.56 6.56 0 0 0 6.14 6.92 6.73 6.73 0 0 0 2.71-.42l73.16-28.09a6.59 6.59 0 0 0 2.26-10.78zm-75.93-3.13l.6-21.32-9.41-24.51L240 209.72l9.41 24.51 14.71 15.44zm21.34-22.25l6.12-2.35 2.35 6.13-6.12 2.35zm-8.52-3.77l-6.13 2.35-2.35-6.13 6.12-2.35zm-7-18.38l6.13-2.36 2.35 6.13-6.15 2.32zm-7.06-18.39l-6.12 2.36-2.36-6.13 6.13-2.35zM798.94 51.24l22.62-8.68-2.89-7.56L796 43.7l-2.89-7.54 20.92-16.94-5.28-6.11-18.5 15.51-2.89-7.54a8.11 8.11 0 0 0-10.44-4.65L774 8.89A8.11 8.11 0 0 0 765 4l4.79-10.75L783.32-12l-2.89-7.54-16.59 6.37-9.3 20.87-4.45 1.71L729.15.16l-16.59 6.37 2.89 7.54L729 8.86l10.75 4.79a8 8 0 0 0-3.45 9.72l2.9 7.54a8.1 8.1 0 0 0-4.65 10.43l2.9 7.54-24.15.88.15 8.08 26.89-1.41 2.9 7.54-22.63 8.68 2.9 7.54 22.62-8.68 2.9 7.54L728.12 96l5.29 6.11 18.53-15.51 2.9 7.54a8.09 8.09 0 0 0 10.43 4.65l7.54-2.9 4.65-10.43-20.27-52.8 7.55-2.9L785 82.55l10.44 4.65 7.56-2.9a8.09 8.09 0 0 0 4.64-10.43l-2.89-7.54 24.15-.88-.16-8.07-26.89 1.41zm-29.56-31.91L746.76 28l-2.9-7.54 22.63-8.68zM562.29 94.24a7.5 7.5 0 1 1 9.71 4.32 7.52 7.52 0 0 1-9.71-4.32zm56-21.5a7.5 7.5 0 1 0-4.29 9.69 7.53 7.53 0 0 0 4.31-9.69zm16.13 42a7.5 7.5 0 1 0-4.32 9.7 7.52 7.52 0 0 0 4.34-9.69zm-12.88-75.4l-56 21.51 5.83 15.19a14.72 14.72 0 0 1 8 3.58l16.38-6.29a15.69 15.69 0 1 1 21.05 16.75 15.48 15.48 0 0 1-15.74-2.71l-16.32 6.26a15.3 15.3 0 0 1-13.61 13.5 15.7 15.7 0 0 1-14.73-6.56 15.25 15.25 0 0 1 .92-19.15l-5.83-15.2-14 5.38a7.52 7.52 0 0 0-4.31 9.69l32.25 84a7.53 7.53 0 0 0 9.69 4.32l21.58-48.46 15.19-5.83A15.69 15.69 0 1 1 633 132.11a15.48 15.48 0 0 1-15.74-2.72l-8.19 3.15-12.88 29 63-24.19a7.52 7.52 0 0 0 4.31-9.69l-32.26-84a7.53 7.53 0 0 0-9.68-4.31zM106.12 255.09l-7 2.69 4 10.51a3.71 3.71 0 0 1-2.16 4.84l-14 5.38a3.72 3.72 0 0 1-4.85-2.16l-4-10.5-21 8.06 4 10.5a3.71 3.71 0 0 1-2.11 4.85l-14 5.38a3.73 3.73 0 0 1-4.85-2.16l-4-10.5-7 2.68a7.52 7.52 0 0 0-4.31 9.69l29.56 77a7.53 7.53 0 0 0 9.6 4.35l77-29.57a7.53 7.53 0 0 0 4.32-9.69l-29.57-77a7.53 7.53 0 0 0-9.63-4.35zm32.25 84l-77 29.56-24.2-63 77-29.57zM52.79 283.6l-7 2.69-5.37-14 7-2.68zm42-16.13l-7 2.69-5.38-14 7-2.69zm-24.25 41.45l-7 2.69-2.69-7 7-2.69zm14-5.37l-7 2.69-2.69-7 7-2.69zm14-5.38l-7 2.69-2.69-7 7-2.69zm14-5.37l-7 2.68-2.68-7 7-2.69zm-50.63 35.5l-7 2.69-2.69-7 7-2.69zm14-5.37l-7 2.69-2.68-7 7-2.68zm14-5.38l-7 2.69-2.69-7 7-2.69zm14-5.37l-7 2.68-2.68-7 7-2.69zm14-5.38l-7 2.69-2.69-7 7-2.69zm-50.62 35.51l-7 2.69-2.69-7 7-2.69zm14-5.38l-7 2.69-2.69-7 7-2.69zm14-5.37l-7 2.69-2.69-7 7-2.68zm14-5.38l-7 2.69-2.69-7 7-2.69zm14-5.37l-7 2.68-2.69-7 7-2.69zm-50.63 35.51l-7 2.68-2.66-7 7-2.69zm14-5.38l-7 2.69-2.69-7 7-2.68zm14-5.38l-7 2.69-2.69-7 7-2.69zm14-5.37l-7 2.68-2.69-7 7-2.69zM422.78 125.5l-9.06 20.35L461.21 167l-21.14 47.49 20.35 9.06 25.3-66zm-49 18.82l-25.3 66 62.93 32.08 9.05-20.4L373 200.86l21.14-47.48zM919.09-72l-49 18.82a6.58 6.58 0 0 0-3.77 8.48L899.23 41a6.57 6.57 0 0 0 8.48 3.77l49-18.81a6.59 6.59 0 0 0 3.77-8.48l-32.91-85.75a6.59 6.59 0 0 0-8.48-3.73zm11.48 103.11a8.53 8.53 0 1 1 4.91-11 8.52 8.52 0 0 1-4.91 11zm16.75-29.63l-49 18.82L874.78-41l49-18.81zM1036.89 1135.93l-38.57-38.56-9.41-24.51 6.13-2.35-2.35-6.12-55.15 21.16 2.36 6.13 6.12-2.35 9.41 24.51-2.79 54.43a6.56 6.56 0 0 0 8.89 6.5l73.16-28.08a6.59 6.59 0 0 0 2.26-10.78zm-75.89-3.12l.6-21.32-9.45-24.49 30.64-11.76 9.41 24.51 14.71 15.44zm21.33-22.25l6.13-2.36 2.35 6.13-6.12 2.35zm-8.48-3.78l-6.12 2.35-2.36-6.12 6.13-2.36zm-7-18.38l6.13-2.35 2.35 6.13-6.13 2.35zm-7.15-18.4l-6.13 2.35-2.35-6.13 6.13-2.35zM1541.72 916.74l22.62-8.69-2.89-7.54-22.63 8.69-2.89-7.54 20.92-16.95-5.28-6.1-18.57 15.5-2.89-7.54a8.11 8.11 0 0 0-10.44-4.64l-2.89-7.54a8.12 8.12 0 0 0-9.07-4.92l4.79-10.75 13.57-5.21-2.9-7.54-16.59 6.37-9.29 20.87-4.45 1.71-20.95-9.26-16.56 6.34 2.9 7.54 13.57-5.21 10.75 4.78a8.05 8.05 0 0 0-3.45 9.72l2.9 7.54a8.11 8.11 0 0 0-4.65 10.44l2.89 7.54-24.15.88.16 8.07 26.89-1.41 2.89 7.54-22.62 8.69 2.89 7.54 22.63-8.69 2.89 7.54-20.92 17 5.28 6.1 18.54-15.5 2.89 7.54a8.11 8.11 0 0 0 10.44 4.64l7.54-2.89 4.65-10.44-20.24-52.81 7.54-2.89 20.27 52.79 10.43 4.64 7.55-2.89a8.11 8.11 0 0 0 4.64-10.44l-2.89-7.54 24.15-.88-.16-8.07-26.89 1.41zm-29.56-31.92l-22.62 8.69-2.9-7.54 22.63-8.69zM1305.07 959.74a7.5 7.5 0 1 1 9.69 4.31 7.52 7.52 0 0 1-9.69-4.31zm56-21.51a7.5 7.5 0 1 0-4.32 9.69 7.52 7.52 0 0 0 4.34-9.69zm16.13 42a7.5 7.5 0 1 0-4.32 9.69 7.53 7.53 0 0 0 4.34-9.67zm-12.88-75.4l-56 21.5 5.83 15.2a14.68 14.68 0 0 1 8 3.58l16.38-6.29a15.69 15.69 0 1 1 21.05 16.74 15.48 15.48 0 0 1-15.74-2.71l-16.32 6.26a15.32 15.32 0 0 1-13.52 13.53 15.69 15.69 0 0 1-14.73-6.56 15.25 15.25 0 0 1 .92-19.16l-5.84-15.19-14 5.37a7.52 7.52 0 0 0-4.31 9.69l32.25 84a7.52 7.52 0 0 0 9.69 4.31l21.58-48.45 15.19-5.84a15.69 15.69 0 1 1 21 16.75 15.48 15.48 0 0 1-15.74-2.71l-8.2 3.14-12.87 29 63-24.2a7.53 7.53 0 0 0 4.32-9.69l-32.26-84a7.52 7.52 0 0 0-9.66-4.25zM1165.56 991l-9.06 20.35 47.49 21.15-21.14 47.5 20.35 9.06 25.3-65.95zm-49 18.82l-25.3 66 62.93 32.09 9.06-20.35-47.49-21.14 21.15-47.49zM1661.87 793.45l-49 18.81a6.58 6.58 0 0 0-3.77 8.48l32.9 85.78a6.59 6.59 0 0 0 8.48 3.78l49-18.82a6.59 6.59 0 0 0 3.78-8.48l-32.93-85.78a6.57 6.57 0 0 0-8.46-3.77zm11.48 103.15a8.53 8.53 0 1 1 4.91-11 8.52 8.52 0 0 1-4.91 11zm16.75-29.6l-49 18.82-23.52-61.27 49-18.82zM1850.62 728.72l-105.57 40.53a8.11 8.11 0 0 0-4.65 10.44l26 67.87a8.1 8.1 0 0 0 10.44 4.64l40.27-15.46c-.12 5.33-2.46 13-11.86 21.86l60.33-23.16c-12.92-.31-19.78-4.43-23.43-8.31l40.27-15.45a8.1 8.1 0 0 0 4.64-10.44l-26-67.87a8.11 8.11 0 0 0-10.44-4.65zm26.06 67.87l-105.58 40.53-23.16-60.33 105.58-40.53zM1593.23 1052.74l-63 24.19a7.52 7.52 0 0 0-4.31 9.69l5.37 14-28 10.76a7.52 7.52 0 0 0-4.31 9.69l16.13 42a7.52 7.52 0 0 0 9.69 4.32l7-2.69 8.06 21 13-29.07 28-10.76a7.52 7.52 0 0 0 4.31-9.69l-5.37-14 7-2.69 29.07 12.94-8.06-21 7-2.68a7.52 7.52 0 0 0 4.31-9.69l-16.13-42a7.51 7.51 0 0 0-9.76-4.32zm-15.13 86.15l-31.51 12.1-6.47 14.53-4-10.5-14 5.38-16.13-42 28-10.75 8.07 21a7.51 7.51 0 0 0 9.69 4.31l21-8.06zm34-37.14l-14 5.38 4 10.5-14.54-6.47L1549 1126l-16.13-42 63-24.19zM1747 1023a15 15 0 1 0-16.38 20.11l.81 2.1a16.3 16.3 0 0 1-8.68 19.48c-5.75 2.37-9.93 5.09-12.79 8.52l-12.8-33.33a15 15 0 1 0-13.93 5.35l17.63 45.94a14.94 14.94 0 0 0 17 23.36 15 15 0 0 0 1.27-27.48c.47-.66 2.26-4.16 2.86-4.88a17.52 17.52 0 0 1 6.13-3.72 30.1 30.1 0 0 0 15.9-16.14c3.45-7.75 3.08-17.09.63-24.51l-.14.05A15.09 15.09 0 0 0 1747 1023zm-64.62-.91a9 9 0 1 1-5.18 11.63 9.09 9.09 0 0 1 5.17-11.59zm33.36 86.91a9 9 0 1 1 5.18-11.63 9.09 9.09 0 0 1-5.19 11.63zm20.51-72.15a9 9 0 1 1 5.18-11.63 9.09 9.09 0 0 1-5.19 11.67zM1841.81 960.13c-20.28 7.78-30.89 29.43-23.83 47.81 10.63 27.7 61.46 50.22 61.46 50.22s22.7-50.75 12.07-78.44c-7.06-18.39-29.42-27.38-49.7-19.59zm34.22 89.15c-16.17-8.06-45-25.68-51.92-43.69-5.84-15.2 3.2-32.87 20.05-39.33a34.23 34.23 0 0 1 25 0c7.66 3.11 13.46 8.69 16.21 15.86 6.93 17.96-2.72 50.35-9.37 67.16zm-9-60.16a13.13 13.13 0 1 1-17-7.55 13.08 13.08 0 0 1 16.97 7.55z"/>
  </g>
</svg>
